<?xml version="1.0" encoding="UTF-8"?>
<svg xmlns="http://www.w3.org/2000/svg" width="148" height="50" viewBox="0 0 148 50" fill="none">
  <path d="M9.96155 35.847V17.3724L4.83847 20.3667V38.7283L16.7923 45.734V39.83L9.96155 35.847Z" fill="white"></path>
  <path fill-rule="evenodd" clip-rule="evenodd" d="M24.1923 9.03906L11.6692 16.3837V34.8583L16.7923 37.8526V20.1973L23.3385 24.0391V31.4402L18.5 28.5871V34.491L24.1923 37.8244L36.7154 30.4797V16.3554L24.1923 9.03906ZM17.7031 18.7566L24.1923 14.943L30.6815 18.7566L24.1923 22.5701L17.7031 18.7566ZM31.5923 27.5984L25.0462 31.4402V24.0391L31.5923 20.1973V27.5984Z" fill="white"></path>
  <path d="M104.767 15.2538V30.508H102.319V15.2538H104.767Z" fill="white"></path>
  <path d="M77.6146 25.2538C77.6146 22.2029 79.8916 19.7735 83.1646 19.7735C85.7831 19.7735 88.2023 21.6379 88.4869 24.3215H86.0962C85.7831 22.9656 84.5593 22.0334 83.1646 22.0334C81.2862 22.0334 80.0623 23.4458 80.0623 25.2538C80.0623 27.0617 81.2577 28.4458 83.1646 28.4458C84.5593 28.4741 85.7831 27.5136 86.0962 26.1577H88.4869C88.2023 28.8696 85.7831 30.7057 83.1646 30.7057C79.8916 30.7057 77.6146 28.2764 77.6146 25.2538Z" fill="white"></path>
  <path fill-rule="evenodd" clip-rule="evenodd" d="M67.5108 19.9995V30.508H65.0631V29.0956C64.1808 30.1408 62.9 30.734 61.5054 30.734C58.6023 30.734 56.4108 28.5023 56.4108 25.282C56.4108 22.0617 58.6023 19.8018 61.5054 19.8018C62.8716 19.7735 64.1808 20.3667 65.0631 21.4402V20.0278L67.5108 19.9995ZM65.0631 25.2537C65.0631 23.4458 63.7539 22.0052 61.9608 22.0052C60.1677 22.0052 58.9439 23.4458 58.9439 25.2537C58.9439 27.0617 60.1962 28.4741 61.9608 28.4741C63.7254 28.4741 65.0631 27.0617 65.0631 25.2537Z" fill="white"></path>
  <path fill-rule="evenodd" clip-rule="evenodd" d="M55.2154 25.2537C55.2154 28.4741 53.0238 30.734 50.1208 30.734C48.7546 30.7622 47.4454 30.169 46.5915 29.1238V35.621H44.1438V20.0278H46.5915V21.4402C47.4738 20.395 48.7546 19.8018 50.1492 19.8018C53.0523 19.8018 55.2154 22.0334 55.2154 25.2537ZM52.7108 25.2537C52.7108 23.4741 51.4585 22.0334 49.6654 22.0334C47.8723 22.0334 46.5915 23.4458 46.5915 25.2537C46.5915 27.0617 47.9008 28.5023 49.6939 28.5023C51.4869 28.5023 52.7108 27.0617 52.7108 25.2537Z" fill="white"></path>
  <path d="M77.1308 22.4006V19.8018C75.2808 19.8018 73.6585 20.4515 72.5485 21.8074V19.9995H70.1008V30.508H72.5485V26.2142C72.5485 23.5306 74.1708 22.1182 77.1308 22.4006Z" fill="white"></path>
  <path fill-rule="evenodd" clip-rule="evenodd" d="M92.0162 26.1012H100.242C100.725 22.3159 98.2777 19.8018 94.9762 19.7735C91.8739 19.7735 89.6539 22.2312 89.6539 25.2538C89.6539 28.2764 91.76 30.7057 95.2608 30.7057C97.4808 30.7057 99.4446 29.2933 100.128 27.2029H97.7369C97.2246 28.1634 96.2854 28.6153 95.1469 28.6153C93.61 28.6718 92.2723 27.5984 92.0162 26.1012ZM97.8792 24.2933H92.0731C92.3577 22.8526 93.6385 21.8357 95.09 21.8922C96.5131 21.8639 97.7085 22.9091 97.8792 24.2933Z" fill="white"></path>
  <path d="M116.322 30.508V28.2481H110.118V15.2538H107.67V30.508H116.322Z" fill="white"></path>
  <path fill-rule="evenodd" clip-rule="evenodd" d="M127.764 19.9995V30.508H125.316V29.0956C124.434 30.1408 123.153 30.734 121.758 30.734C118.855 30.734 116.664 28.5023 116.664 25.282C116.664 22.0617 118.855 19.8018 121.758 19.8018C123.125 19.7735 124.434 20.3667 125.316 21.4402V20.0278L127.764 19.9995ZM125.288 25.2537C125.288 23.4458 123.978 22.0052 122.185 22.0052C120.392 22.0052 119.168 23.4458 119.168 25.2537C119.168 27.0617 120.421 28.4741 122.214 28.4741C124.007 28.4741 125.288 27.0617 125.288 25.2537Z" fill="white"></path>
  <path fill-rule="evenodd" clip-rule="evenodd" d="M136.359 30.734C139.262 30.734 141.454 28.4741 141.454 25.2537C141.454 22.0334 139.262 19.8018 136.359 19.83C134.993 19.8018 133.684 20.395 132.802 21.4684V15.282H130.354V30.5362H132.802V29.0956C133.655 30.1408 134.965 30.7622 136.359 30.734ZM135.904 22.0334C137.697 22.0334 138.949 23.4741 138.949 25.2537C138.949 27.0617 137.725 28.5023 135.932 28.5023C134.139 28.5023 132.83 27.0617 132.83 25.2537C132.83 23.4458 134.111 22.0334 135.904 22.0334Z" fill="white"></path>
  <path fill-rule="evenodd" clip-rule="evenodd" d="M142.45 17.6831H142.82V17.0334H142.991C143.19 17.0334 143.275 17.1182 143.304 17.2877C143.332 17.4854 143.361 17.6266 143.418 17.6831H143.816C143.788 17.6266 143.759 17.5419 143.702 17.2877C143.645 17.0617 143.56 16.9487 143.418 16.8922V16.8639C143.588 16.8074 143.731 16.6662 143.731 16.4967C143.731 16.3554 143.674 16.2142 143.588 16.1577C143.475 16.1012 143.332 16.0447 143.048 16.0447C142.792 16.0447 142.592 16.073 142.45 16.1012V17.6831ZM143.019 16.7792H142.848V16.3272C142.877 16.2989 142.962 16.299 143.048 16.299C143.275 16.299 143.389 16.4119 143.389 16.5532C143.389 16.7227 143.218 16.7792 143.019 16.7792Z" fill="white"></path>
  <path fill-rule="evenodd" clip-rule="evenodd" d="M143.076 18.4458C143.987 18.4458 144.698 17.7396 144.698 16.8357C144.698 15.96 143.987 15.2538 143.076 15.2538C142.165 15.2538 141.454 15.96 141.454 16.8357C141.454 17.7396 142.165 18.4458 143.076 18.4458ZM143.076 18.1069C142.365 18.1069 141.852 17.5419 141.852 16.8357C141.852 16.1577 142.393 15.5645 143.076 15.5645C143.759 15.5645 144.272 16.1295 144.272 16.8357C144.272 17.5419 143.759 18.1069 143.076 18.1069Z" fill="white"></path>
</svg>
